<?xml version="1.0" encoding="utf-8"?>
<?xml-stylesheet type="text/xsl" href="rss1.xsl"?>
<rss version="2.0" xmlns:atom="http://www.w3.org/2005/Atom" xmlns:content="http://purl.org/rss/1.0/modules/content/" xmlns:dc="http://purl.org/dc/elements/1.1/" xmlns:media="http://search.yahoo.com/mrss/">
<channel>
 <title>Getty</title>
 <link>http://www.gettyimg.com/</link>
 <atom:link href="http://www.gettyimg.com/" rel="self" type="application/rss+xml" />

 
                <item>
                <title><![CDATA[【HD Live Performances】HDTV - Zara Larsson - End Of Time &amp; Genom eld och vatten - Allsång på Skansen 2023-07-04 - 720p HDTV DD5.1 H.264]]></title>
                <link><![CDATA[https://sharemania.us/threads/zara-larsson-end-of-time-genom-eld-och-vatten-alls%C3%A5ng-p%C3%A5-skansen-2023-07-04-720p-hdtv-dd5-1-h-264.224618/]]></link>
                <description><![CDATA[<article>
<blockquote class="messageText SelectQuoteContainer ugc baseHtml">
<div style="text-align: center"><b><span style="font-size: 22px"><span style="color: #ff0000">Zara Larsson - End Of Time &amp; Genom eld och vatten - Allsång på Skansen 2023-07-04 - 720p HDTV DD5.1 H.264</span></span></b><br>
<br>
<img src="https://i.postimg.cc/qq78PSVp/zr-lrss-eot-skns-2023.png" class="bbCodeImage LbImage" alt="[​IMG]" data-url="https://i.postimg.cc/qq78PSVp/zr-lrss-eot-skns-2023.png" style=""> ​</div><br>
<br>
<div class="bbCodeBlock bbCodeCode">
<div class="type">Code:</div>
<pre>General
ID                          : 1 (0x1)
Complete name               : Zara Larsson - End Of Time &amp; Genom eld och vatten - Allsång på Skansen 2023-07-04 - 720p HDTV DD5.1 H.264.ts
Format                      : MPEG-TS
File size                   : 660 MiB
Duration                    : 8 min 23 s
Overall bit rate mode       : Variable
Overall bit rate            : 11.0 Mb/s
Frame rate                  : 50.000 FPS

Video
ID                          : 256 (0x100)
Menu ID                     : 1 (0x1)
Format                      : AVC
Format/Info                 : Advanced Video Codec
Format profile              : Main@L3.2
Format settings             : CABAC / 2 Ref Frames
Format settings, CABAC      : Yes
Format settings, Reference  : 2 frames
Format settings, GOP        : M=4, N=48
Codec ID                    : 27
Duration                    : 8 min 23 s
Bit rate                    : 9 985 kb/s
Width                       : 1 280 pixels
Height                      : 720 pixels
Display aspect ratio        : 16:9
Frame rate                  : 50.000 FPS
Color space                 : YUV
Chroma subsampling          : 4:2:0
Bit depth                   : 8 bits
Scan type                   : Progressive
Bits/(Pixel*Frame)          : 0.217
Stream size                 : 600 MiB (91%)
Color range                 : Limited
Color primaries             : BT.709
Transfer characteristics    : BT.709
Matrix coefficients         : BT.709

Audio
ID                          : 257 (0x101)
Menu ID                     : 1 (0x1)
Format                      : AC-3
Format/Info                 : Audio Coding 3
Commercial name             : Dolby Digital
Codec ID                    : 129
Duration                    : 8 min 23 s
Bit rate mode               : Constant
Bit rate                    : 448 kb/s
Channel(s)                  : 6 channels
Channel layout              : L R C LFE Ls Rs
Sampling rate               : 48.0 kHz
Frame rate                  : 31.250 FPS (1536 SPF)
Compression mode            : Lossy
Stream size                 : 26.9 MiB (4%)
Language                    : Swedish
Service kind                : Complete Main

Text #1
ID                          : 258 (0x102)-799
Menu ID                     : 1 (0x1)
Format                      : Teletext Subtitle
Language                    : Swedish

Text #2
ID                          : 259 (0x103)
Menu ID                     : 1 (0x1)
Format                      : DVB Subtitle
Codec ID                    : 6
Duration                    : 8 min 23 s
Delay relative to video     : 608 ms
Language                    : Swedish

Other
ID                          : 258 (0x102)-100
Menu ID                     : 1 (0x1)
Format                      : Teletext
Language                    : Swedish
</pre>
</div>
<div class="bbCodeBlock bbCodeVfcHH HiddenContent">
<div class="attribution type">Hidden Content:</div>
<blockquote>You must either reply or click 'Like' to see the hidden information contained here.</blockquote>
</div>
<div class="messageTextEndMarker">&nbsp;</div>
</blockquote>
</article>]]></description>
                <author><![CDATA[Lassox]]></author>
                </item>

                </channel></rss>